<svg width="250" height="250" viewBox="0 0 250 250" fill="none" xmlns="http://www.w3.org/2000/svg">
<rect width="250" height="250" rx="32" fill="white"/>
<path d="M140.245 94.646L111.967 110.492L85.4092 95.3774L113.688 79.5312L140.245 94.646Z" fill="#19306B"/>
<path d="M195.82 62.4585L168.771 78.0609L142.214 62.7023L169.263 47.3438L195.82 62.4585Z" fill="#19306B"/>
<path d="M125.984 125.122L61.8033 88.5538L151.557 37.1148L125 22L35.2459 73.4391H35V103.669H35.2459L125.984 155.595L188.443 119.759V161.202L125 197.527L35 146.088V176.561L125 228L215 176.561V74.1704L125.984 125.122Z" fill="#19306B"/>
<path d="M162.623 81.7414L146.885 90.7615L120.082 75.6467L136.066 66.3828L162.623 81.7414Z" fill="#DC7C3B"/>
</svg>
