<svg width="180" height="206" viewBox="0 0 48 55" fill="none" xmlns="http://www.w3.org/2000/svg">
<path d="M27.6594 19.2567L20.2275 23.4574L13.248 19.4506L20.6799 15.25L27.6594 19.2567Z" fill="#19306B"/>
<path d="M42.265 10.7255L35.1562 14.8615L28.1768 10.7901L35.2855 6.71875L42.265 10.7255Z" fill="#19306B"/>
<path d="M23.9112 27.3363L7.04411 17.6426L30.6322 4.00674L23.6527 0L0.0646249 13.6359H0V21.6493H0.0646249L23.9112 35.4144L40.3259 25.9146V36.9008L23.6527 46.5299L0 32.8941V40.9722L23.6527 54.608L47.3054 40.9722V13.8297L23.9112 27.3363Z" fill="#19306B"/>
<path d="M33.5405 15.837L29.4045 18.2281L22.3604 14.2214L26.561 11.7656L33.5405 15.837Z" fill="#DC7C3B"/>
</svg>
